<svg xmlns="http://www.w3.org/2000/svg" viewBox="0 0 60 17.94"><defs><style>.a{fill:none;stroke:#c1c1c1;stroke-miterlimit:10;}</style></defs><path class="a" d="M0 5.44C3.25 5.44 6.67.5 10 .5s6.67 4.94 10 4.94S26.58.5 30 .5s7.5 4.94 10 4.94c3.33 0 6.67-4.94 10-4.94s6.67 4.94 10 4.94"/><path class="a" d="M0 9.44c3.25 0 6.67-4.94 10-4.94s6.67 4.94 10 4.94S26.58 4.5 30 4.5s7.5 4.94 10 4.94c3.33 0 6.67-4.94 10-4.94s6.67 4.94 10 4.94"/><path class="a" d="M0 13.44c3.25 0 6.67-4.94 10-4.94s6.67 4.94 10 4.94S26.58 8.5 30 8.5s7.5 4.94 10 4.94c3.33 0 6.67-4.94 10-4.94s6.67 4.94 10 4.94"/><path class="a" d="M0 17.44c3.25 0 6.67-4.94 10-4.94s6.67 4.94 10 4.94 6.58-4.94 10-4.94 7.5 4.94 10 4.94c3.33 0 6.67-4.94 10-4.94s6.67 4.94 10 4.94"/></svg>