<svg xmlns="http://www.w3.org/2000/svg" viewBox="0 0 86.81 8.88"><defs><style>.svg-logo-type{fill:#333}</style></defs><path class="svg-logo-type" d="M3.23.2h1.78l3.2 8.45H6.13l-.66-1.86H2.54L1.9 8.65H.01zm1.83 5.14l-1-3.08-1 3.08zM15.01 6.2c0 1.95-1.54 2.45-3.12 2.45H9.1V.2h2.67c1.41 0 2.91.35 2.91 2.17a1.83 1.83 0 0 1-1.1 1.75 1.92 1.92 0 0 1 1.43 2.07zM12.9 2.65c0-.76-.5-1-1.36-1h-.6v2h1.07a.87.87 0 0 0 .87-.91zm-2 4.4h.87c.76 0 1.3-.2 1.3-1.09 0-.61-.36-1-1.46-1h-.71zM19.82 6.45c-.39-.83-.66-1-1.2-1h-.84v3.2h-1.77V.2h2.16c2.05 0 3.69.34 3.69 2.41a2 2 0 0 1-1.34 2.06 1.88 1.88 0 0 1 .76.71c.33.62 1.09 2.31 1.49 3.27h-2a22.3 22.3 0 0 0-.95-2.2zm.17-3.63c0-.9-.74-1-1.64-1h-.57v2.16h1.23a1 1 0 0 0 1-1.16zM22.85 4.39c0-2 .87-4.39 4.06-4.39s4.06 2.43 4.06 4.4-.87 4.48-4.06 4.48-4.06-2.47-4.06-4.48zm2 0c0 2.09.86 2.82 2 2.82s2-.73 2-2.83-.86-2.72-2-2.72-2 .66-2 2.72zM33.8 7.02h3v1.63h-4.84V.2h1.87zM39.89 7.02h3v1.63h-4.88V.2h1.88zM45.75 3.58h2.55v1.56h-2.55v1.88h3.14v1.63h-5V.2h4.8v1.63h-2.95zM53.8 6.45c-.4-.83-.66-1-1.2-1h-.85v3.2h-1.74V.2h2.16c2 0 3.68.34 3.68 2.41a2 2 0 0 1-1.33 2.06 1.88 1.88 0 0 1 .76.71c.33.62 1.09 2.31 1.49 3.27h-2a22.3 22.3 0 0 0-.97-2.2zm.17-3.63c0-.9-.74-1-1.64-1h-.58v2.16h1.26a1 1 0 0 0 1-1.16zM59.53 8.65h-1.82v-2h1.82zM61.51 8.65V1.83h-2.1V.2h6.09v1.63h-2.1v6.82zM68.33 3.58h2.55v1.56h-2.55v1.88h3.15v1.63h-5V.2h4.8v1.63h-2.95zM72.08 4.51c0-2.22.84-4.46 4.36-4.46a10.65 10.65 0 0 1 1.85.19l-.31 1.7a5 5 0 0 0-1.5-.23c-1.54 0-2.37.88-2.37 2.84s1 2.56 2.42 2.56a5.92 5.92 0 0 0 1.58-.23l.19 1.73a8.53 8.53 0 0 1-1.84.19c-3.49 0-4.38-2.1-4.38-4.28zM81.53 8.65h-1.89V.2h1.89v3.32h3.39V.2h1.89v8.45h-1.89v-3.5h-3.39z"/></svg>